<svg width="140" height="140" xmlns="http://www.w3.org/2000/svg">

 <g>
  <title>background</title>
  <rect fill="none" id="canvas_background" height="142" width="142" y="-1" x="-1"/>
 </g>
 <g>
  <title>Layer 1</title>
  <path fill="#ffffff" stroke="null" id="svg_2" d="m28.937323,67.105312l21.362884,-21.359705c2.132792,-2.135971 2.132792,-5.594209 0,-7.730179c-2.135971,-2.135971 -5.594209,-2.135971 -7.730179,0l-25.142153,25.142153c-1.093413,1.087056 -1.621049,2.520572 -1.601978,3.941374c-0.019071,1.42398 0.508564,2.847961 1.601978,3.938196l25.142153,25.142153c2.129613,2.132792 5.594209,2.132792 7.730179,0c2.139149,-2.135971 2.132792,-5.594209 0,-7.730179l-21.362884,-21.343813l0,0z"/>
  <path fill="#ffffff" stroke="null" id="svg_3" d="m118.522303,63.17736l-24.988157,-24.988157c-2.122888,-2.122888 -5.559944,-2.122888 -7.685991,0c-2.122888,2.11657 -2.122888,5.559944 0,7.676514l21.228877,21.225718l-21.228877,21.232036c-2.122888,2.119729 -2.122888,5.556785 0,7.679673c2.11657,2.122888 5.556785,2.122888 7.685991,0l24.988157,-24.988157c1.080398,-1.080398 1.61112,-2.498816 1.592166,-3.917233c0.009477,-1.421577 -0.521245,-2.839994 -1.592166,-3.920392z"/>
  <path fill="#ffffff" stroke="null" id="svg_4" d="m69.135542,100.456145c-0.560195,3.407851 -3.77131,5.718654 -7.182495,5.158459l0,0c-3.404516,-0.560195 -5.711984,-3.781314 -5.15179,-7.182495l10.63036,-64.702478c0.560194,-3.404516 3.777979,-5.711984 7.17916,-5.151789l0,0c3.404517,0.560194 5.711985,3.77131 5.15179,7.182495l-10.627025,64.695808z"/>
 </g>
</svg>