<svg width="55.00000000000001" height="80" xmlns="http://www.w3.org/2000/svg">
 <g>
  <title>background</title>
  <rect x="-1" y="-1" width="57" height="82" id="canvas_background" fill="none"/>
 </g>

 <g>
  <title>Layer 1</title>
  <path d="m27.5,1.72726c-14.01948,0 -25.3863,11.13935 -25.3863,24.87829c0,10.99358 7.27318,20.31687 17.36165,23.60581c1.26902,0.22779 1.73232,-0.54057 1.73232,-1.19654c0,-0.59222 -0.02325,-2.55401 -0.03565,-4.63125c-7.05932,1.50324 -8.55146,-2.93365 -8.55146,-2.93365c-1.15587,-2.87291 -2.81848,-3.63821 -2.81848,-3.63821c-2.30713,-1.54274 0.17503,-1.51237 0.17503,-1.51237c2.54884,0.17308 3.89075,2.56314 3.89075,2.56314c2.26533,3.8022 5.94371,2.70284 7.38781,2.06509c0.23075,-1.60348 0.88772,-2.70284 1.61143,-3.32237c-5.63536,-0.62861 -11.56356,-2.76358 -11.56356,-12.29643c0,-2.71805 0.99012,-4.93494 2.61083,-6.67662c-0.25878,-0.63167 -1.13267,-3.16294 0.25098,-6.58701c0,0 2.12898,-0.66812 6.98183,2.551c2.02356,-0.55423 4.19439,-0.82755 6.35277,-0.83668c2.15684,0.00913 4.32916,0.28547 6.3559,0.83969c4.84362,-3.22213 6.97567,-2.551 6.97567,-2.551c1.38832,3.42713 0.51442,5.95534 0.25411,6.584c1.62691,1.74168 2.60929,3.95862 2.60929,6.67662c0,9.55715 -5.93752,11.6617 -11.59301,12.27821c0.9142,0.77138 1.723,2.28375 1.723,4.60395c0,3.32543 -0.03412,6.00699 -0.03412,6.82695c0,0.66204 0.46172,1.43643 1.74779,1.19348c10.08079,-3.29502 17.34772,-12.6183 17.34772,-23.60581c0,-13.73894 -11.36682,-24.87829 -25.3863,-24.87829z" id="svg_1" stroke="null" fill="#ffffff"/>
  <text fill="#d4a54f" stroke-width="0" stroke-opacity="null" x="7.901125" y="67.168043" id="svg_5" font-size="11" font-family="Oswald, sans-serif" text-anchor="start" xml:space="preserve" transform="matrix(0.9793411347090651,0,0,1.4838846921920774,-0.5792481353914736,-24.05208481154466) " stroke="null">GITHUB</text>
 </g>
</svg>