<svg width="55" height="80" xmlns="http://www.w3.org/2000/svg">
 <title/>

 <desc/>
 <g>
  <title>background</title>
  <rect x="-1" y="-1" width="11.212669" height="15.400246" id="canvas_background" fill="none"/>
 </g>
 <g>
  <title>Layer 1</title>
  <ellipse fill="#ffffff" stroke-width="NaN" stroke-opacity="null" cx="27.499999" cy="27.500001" id="svg_2" rx="25.64433" ry="25.064433" stroke="null"/>
  <path d="m19.433566,41.33465l0,-18.29881l-5.65571,0l0,18.29881l5.65571,0zm0,-24.78494c-0.03369,-1.63755 -1.12506,-2.88436 -2.89803,-2.88436c-1.77342,0 -2.93217,1.24681 -2.93217,2.88436c0,1.60199 1.12506,2.88487 2.86434,2.88487l0.03369,0c1.80711,0 2.93217,-1.28288 2.93217,-2.88487zm9.22696,24.78494l0,-10.42578c0,-0.55797 0.04033,-1.11594 0.20441,-1.5137c0.44858,-1.11539 1.46951,-2.27001 3.18375,-2.27001c2.2457,0 3.65408,1.2745 3.65408,3.78371l0,10.42578l5.69387,0l0,-10.70476c0,-5.7344 -3.0611,-8.40272 -7.14424,-8.40272c-3.34783,0 -4.81734,1.87169 -5.6333,3.14563l0.04088,-2.44739l-5.68403,0c0.08176,1.75181 0,18.40924 0,18.40924l5.68458,0z" id="svg_1" fill="#545454"/>
  <text fill="#d4a54f" stroke-width="0" stroke-opacity="0" x="2.838809" y="65.010555" id="svg_4" font-size="11" font-family="Oswald, sans-serif" text-anchor="start" xml:space="preserve" font-weight="normal" transform="matrix(1.034934442762692,0,0,1.4791294346666304,-1.6757226311902667,-20.618795256717256) " stroke="#000000">LINKEDIN</text>
 </g>
</svg>