<svg width="141.732" height="141.732" xmlns="http://www.w3.org/2000/svg">

 <g>
  <title>background</title>
  <rect fill="none" id="canvas_background" height="402" width="582" y="-1" x="-1"/>
 </g>
 <g>
  <title>Layer 1</title>
  <path stroke="null" fill="#ffffff" id="svg_1" d="m88.4604,53.269202c0,11.379524 -9.270486,20.611753 -20.706175,20.611753c-11.437317,0 -20.706175,-9.232229 -20.706175,-20.611753c0,-11.38278 9.270486,-20.611753 20.706175,-20.611753c11.438131,-0.000814 20.706175,9.228159 20.706175,20.611753m21.483532,0c0,-22.768001 -18.540158,-41.224319 -41.413164,-41.224319c-22.871378,0 -41.413164,18.456318 -41.413164,41.224319c0,10.010399 3.58805,19.188905 9.550497,26.328376l31.898482,45.813572l32.364896,-46.481854c1.162372,-1.448081 2.227066,-2.974305 3.187569,-4.578671l0.327222,-0.467228l-0.053723,0c3.524559,-6.067451 5.551384,-13.101918 5.551384,-20.614195"/>
 </g>
</svg>