<svg width="55" height="80" xmlns="http://www.w3.org/2000/svg">
 <g>
  <title>background</title>
  <rect x="-1" y="-1" width="11.290533" height="15.513502" id="canvas_background" fill="none"/>
 </g>

 <g>
  <title>Layer 1</title>
  <ellipse opacity="0" fill="#bdbdbd" stroke-width="null" stroke-opacity="null" cx="27.499999" cy="28.126635" id="svg_3" rx="25.608902" ry="25.404162" stroke="null"/>
  <path d="m32.947369,13.859019l-14.526317,0c-1.331579,0 -2.421053,1.11442 -2.421053,2.476489l0,17.335423l2.421053,0l0,-17.335423l14.526317,0l0,-2.476489zm-1.210526,4.952978l7.263158,7.429467l0,12.382445c0,1.362069 -1.089474,2.476489 -2.421053,2.476489l-13.327896,0c-1.331579,0 -2.408948,-1.11442 -2.408948,-2.476489l0.012105,-17.335423c0,-1.362069 1.077368,-2.476489 2.408948,-2.476489l8.473685,0l0.000001,0zm-1.210526,8.667711l6.657895,0l-6.657895,-6.810345l0,6.810345z" id="svg_2" stroke="null" fill="#ffffff"/>
  <text opacity="0" fill="#bdbdbd" stroke-width="0" stroke-opacity="null" x="4.115377" y="70.681771" id="svg_5" font-size="11" font-family="Oswald, sans-serif" text-anchor="start" xml:space="preserve" transform="matrix(0.9942377805709839,0,0,1.510685144036529,0.02366670387942804,-31.801299560027367) " stroke="null">RESUME</text>
 </g>
</svg>