<svg width="140" height="140" xmlns="http://www.w3.org/2000/svg">
 <title/>
 <desc/>

 <g>
  <title>background</title>
  <rect fill="none" id="canvas_background" height="142" width="142" y="-1" x="-1"/>
 </g>
 <g>
  <title>Layer 1</title>
  <path stroke="null" id="business-suitcase-glyph" fill="#ffffff" d="m76.62349,67.054656l4.17675,0l32.452483,0l0,36.177025c0,4.522123 -4.476906,4.522123 -4.476906,4.522123l-80.584313,0c0,0 -4.476906,0 -4.476906,-4.522123l0,-36.177025l32.580686,0l4.048548,0l0,4.03178c0,2.268815 1.804397,4.10805 4.10805,4.10805l8.063559,0c2.268815,0 4.10805,-1.804397 4.10805,-4.10805l0,-4.03178l0,0zm-0.000163,-4.069915l4.070078,0l32.559319,0l0,-15.724686c0,-4.624888 -4.476906,-4.624888 -4.476906,-4.624888l-80.584313,0c0,0 -4.476906,0 -4.476906,4.624888l0,15.724686l32.559319,0l4.070078,0c0.020187,-2.285379 1.851608,-4.069915 4.107887,-4.069915l8.063559,0c2.290711,0 4.087782,1.818682 4.107887,4.069915l0,0zm0.221729,-28.573854l-16.456497,0l0,8.22428l-4.114643,0l0,-7.122351c0,-5.087394 4.696071,-5.087394 4.696071,-5.087394l15.027346,0c0,0 4.696071,0 4.696071,5.087394l0,7.122351l-3.848349,0l0,-8.22428zm-12.431311,28.573854l0,8.13983l8.13983,0l0,-8.13983l-8.13983,0z"/>
 </g>
</svg>